# xmcd
#
# Track frame offsets: 
#        150
#        22647
#        42407
#        59750
#        85382
#        94880
#        108470
#        130670
#        152617
#        174927
#        199335
#
# Disc length: 2938 seconds
#
# Revision: 0
# Processed by: cddbd v1.4PL0 Copyright (c) Steve Scherf et al.
# Submitted via: ExactAudioCopy v0.90b4
#
DISCID=8b0b780b
DTITLE=Elkie Brooks - The Pearls Concert Disk 2
DYEAR=1997
DGENRE=Pop
TTITLE0=Can't Find My Way Home
TTITLE1=Pearls A Singer
TTITLE2=Blues For Mama
TTITLE3=Here's That Rainy Day
TTITLE4=Once In A While
TTITLE5=What'll I Do
TTITLE6=Lilac Wine
TTITLE7=Nights In White Satin
TTITLE8=Only Women Bleed
TTITLE9=No More The Fool
TTITLE10=We've Got the Night
EXTD=
EXTT0=
EXTT1=
EXTT2=
EXTT3=
EXTT4=
EXTT5=
EXTT6=
EXTT7=
EXTT8=
EXTT9=
EXTT10=
PLAYORDER=
